<mxfile host="app.diagrams.net" agent="Mozilla/5.0 (Windows NT 10.0; Win64; x64) AppleWebKit/537.36 (KHTML, like Gecko) Chrome/132.0.0.0 Safari/537.36 OPR/117.0.0.0" version="26.1.1">
  <diagram name="PÃ¡gina-1" id="bE385VNoTOspdOJVuE8P">
    <mxGraphModel dx="1390" dy="785" grid="1" gridSize="10" guides="1" tooltips="1" connect="1" arrows="1" fold="1" page="1" pageScale="1" pageWidth="827" pageHeight="1169" math="0" shadow="0">
      <root>
        <mxCell id="0" />
        <mxCell id="1" parent="0" />
        <mxCell id="Y7A9ca4krXL4j-m_iXMj-3" style="edgeStyle=orthogonalEdgeStyle;rounded=0;orthogonalLoop=1;jettySize=auto;html=1;entryX=0.5;entryY=0;entryDx=0;entryDy=0;" edge="1" parent="1" source="Y7A9ca4krXL4j-m_iXMj-1" target="Y7A9ca4krXL4j-m_iXMj-2">
          <mxGeometry relative="1" as="geometry" />
        </mxCell>
        <mxCell id="Y7A9ca4krXL4j-m_iXMj-1" value="Start" style="ellipse;whiteSpace=wrap;html=1;" vertex="1" parent="1">
          <mxGeometry x="40" y="40" width="120" height="80" as="geometry" />
        </mxCell>
        <mxCell id="Y7A9ca4krXL4j-m_iXMj-5" style="edgeStyle=orthogonalEdgeStyle;rounded=0;orthogonalLoop=1;jettySize=auto;html=1;exitX=0.5;exitY=1;exitDx=0;exitDy=0;entryX=0.5;entryY=0;entryDx=0;entryDy=0;" edge="1" parent="1" source="Y7A9ca4krXL4j-m_iXMj-2" target="Y7A9ca4krXL4j-m_iXMj-4">
          <mxGeometry relative="1" as="geometry" />
        </mxCell>
        <mxCell id="Y7A9ca4krXL4j-m_iXMj-2" value="Display Main Menu" style="rounded=0;whiteSpace=wrap;html=1;" vertex="1" parent="1">
          <mxGeometry x="40" y="180" width="120" height="60" as="geometry" />
        </mxCell>
        <mxCell id="Y7A9ca4krXL4j-m_iXMj-14" style="edgeStyle=orthogonalEdgeStyle;rounded=0;orthogonalLoop=1;jettySize=auto;html=1;exitX=1;exitY=0.5;exitDx=0;exitDy=0;entryX=0;entryY=0.5;entryDx=0;entryDy=0;" edge="1" parent="1" source="Y7A9ca4krXL4j-m_iXMj-4" target="Y7A9ca4krXL4j-m_iXMj-6">
          <mxGeometry relative="1" as="geometry" />
        </mxCell>
        <mxCell id="Y7A9ca4krXL4j-m_iXMj-19" style="edgeStyle=orthogonalEdgeStyle;rounded=0;orthogonalLoop=1;jettySize=auto;html=1;exitX=0.5;exitY=1;exitDx=0;exitDy=0;" edge="1" parent="1" source="Y7A9ca4krXL4j-m_iXMj-4" target="Y7A9ca4krXL4j-m_iXMj-18">
          <mxGeometry relative="1" as="geometry" />
        </mxCell>
        <mxCell id="Y7A9ca4krXL4j-m_iXMj-4" value="User Input" style="rhombus;whiteSpace=wrap;html=1;" vertex="1" parent="1">
          <mxGeometry x="60" y="290" width="80" height="80" as="geometry" />
        </mxCell>
        <mxCell id="Y7A9ca4krXL4j-m_iXMj-15" style="edgeStyle=orthogonalEdgeStyle;rounded=0;orthogonalLoop=1;jettySize=auto;html=1;exitX=1;exitY=0.5;exitDx=0;exitDy=0;entryX=0;entryY=0.5;entryDx=0;entryDy=0;" edge="1" parent="1" source="Y7A9ca4krXL4j-m_iXMj-6" target="Y7A9ca4krXL4j-m_iXMj-11">
          <mxGeometry relative="1" as="geometry" />
        </mxCell>
        <mxCell id="Y7A9ca4krXL4j-m_iXMj-6" value="Add Product" style="rounded=0;whiteSpace=wrap;html=1;" vertex="1" parent="1">
          <mxGeometry x="180" y="300" width="120" height="60" as="geometry" />
        </mxCell>
        <mxCell id="Y7A9ca4krXL4j-m_iXMj-16" style="edgeStyle=orthogonalEdgeStyle;rounded=0;orthogonalLoop=1;jettySize=auto;html=1;exitX=1;exitY=0.5;exitDx=0;exitDy=0;" edge="1" parent="1" source="Y7A9ca4krXL4j-m_iXMj-11" target="Y7A9ca4krXL4j-m_iXMj-12">
          <mxGeometry relative="1" as="geometry" />
        </mxCell>
        <mxCell id="Y7A9ca4krXL4j-m_iXMj-11" value="Update Stock" style="rounded=0;whiteSpace=wrap;html=1;" vertex="1" parent="1">
          <mxGeometry x="340" y="300" width="120" height="60" as="geometry" />
        </mxCell>
        <mxCell id="Y7A9ca4krXL4j-m_iXMj-17" style="edgeStyle=orthogonalEdgeStyle;rounded=0;orthogonalLoop=1;jettySize=auto;html=1;exitX=1;exitY=0.5;exitDx=0;exitDy=0;entryX=0;entryY=0.5;entryDx=0;entryDy=0;" edge="1" parent="1" source="Y7A9ca4krXL4j-m_iXMj-12" target="Y7A9ca4krXL4j-m_iXMj-13">
          <mxGeometry relative="1" as="geometry" />
        </mxCell>
        <mxCell id="Y7A9ca4krXL4j-m_iXMj-12" value="View Products" style="rounded=0;whiteSpace=wrap;html=1;" vertex="1" parent="1">
          <mxGeometry x="500" y="300" width="120" height="60" as="geometry" />
        </mxCell>
        <mxCell id="Y7A9ca4krXL4j-m_iXMj-13" value="Exit" style="rounded=0;whiteSpace=wrap;html=1;" vertex="1" parent="1">
          <mxGeometry x="660" y="300" width="120" height="60" as="geometry" />
        </mxCell>
        <mxCell id="Y7A9ca4krXL4j-m_iXMj-18" value="End" style="ellipse;whiteSpace=wrap;html=1;" vertex="1" parent="1">
          <mxGeometry x="40" y="430" width="120" height="80" as="geometry" />
        </mxCell>
      </root>
    </mxGraphModel>
  </diagram>
</mxfile>
